<svg xmlns="http://www.w3.org/2000/svg" xmlns:svg="http://www.w3.org/2000/svg" xmlns:xlink="http://www.w3.org/1999/xlink" version="1.0" height="680.2472537755966pt" width="490pt" viewBox="496.6 561 498 686.2472537755966" ><defs><style type="text/css">
            @font-face {
                font-family: 'noto_regular';
                src: url('https://app.creately.com/diagram/assets/fonts/noto/noto-regular.woff') format('woff'),
                     url('https://app.creately.com/diagram/assets/fonts/noto/noto-regular.woff2') format('woff2');
                font-weight: normal;
                font-style: normal;
            }
        p {
            margin: 0;
        }
        </style></defs><defs><style>
            span{ display: inline-block; }
        </style></defs><g id="2iplpotzmm"><g transform="translate(506.6 584)"><rect x="0" y="0" width="100" height="61.507415771484375" fill="rgba(164,212,157,1)" stroke="#5e5ca7" stroke-width="1.5" stroke-linecap="round" stroke-linejoin="round"/></g><g transform="translate(520.6, 589.2537078857422) rotate(0, 36, 25.5)" width="72" height="51"><text text-decoration="none" x="3" fill="rgb(0, 0, 0)" font-weight="bold" font-size="10pt" font-family="Arial"  y="14">Electricity&#160;</text><text text-decoration="none" x="15" fill="rgb(0, 0, 0)" font-weight="bold" font-size="10pt" font-family="Arial"  y="33">supply&#160;</text><text text-decoration="none" x="6" fill="rgb(0, 0, 0)" font-weight="bold" font-size="10pt" font-family="Arial"  y="55">company</text><text text-decoration="none" x="66" fill="#4b4b4b" font-size="10pt" font-family="noto_regular"  y="55"></text></g></g><g id="1n9803mzwo"><g transform="translate(846.6 654)"><rect x="0" y="0" width="100" height="50" fill="rgba(164,212,157,1)" stroke="#5e5ca7" stroke-width="1.5" stroke-linecap="round" stroke-linejoin="round"/></g><g transform="translate(859.6, 661.5) rotate(0, 37, 17.5)" width="74" height="35"><text text-decoration="none" x="4" fill="rgb(0, 0, 0)" font-weight="bold" font-size="10pt" font-family="Arial"  y="14">Electricity&#160;</text><text text-decoration="none" x="3.5" fill="rgb(0, 0, 0)" font-weight="bold" font-size="10pt" font-family="Arial"  y="36">Consumer</text><text text-decoration="none" x="70.5" fill="#4b4b4b" font-size="10pt" font-family="noto_regular"  y="36"></text></g></g><g id="2a55zref0o"><g transform="translate(846.6 1054)"><rect x="0" y="0" width="100" height="50" fill="rgba(164,212,157,1)" stroke="#5e5ca7" stroke-width="1.5" stroke-linecap="round" stroke-linejoin="round"/></g><g transform="translate(855.6, 1061.5) rotate(0, 41, 17.5)" width="82" height="35"><text text-decoration="none" x="3.5" fill="rgb(0, 0, 0)" font-weight="bold" font-size="10pt" font-family="Arial"  y="14">Consuption&#160;</text><text text-decoration="none" x="18" fill="rgb(0, 0, 0)" font-weight="bold" font-size="10pt" font-family="Arial"  y="36">Record</text><text text-decoration="none" x="64" fill="#4b4b4b" font-size="10pt" font-family="noto_regular"  y="36"></text></g></g><g id="2hu0dk8sc9"><g transform="translate(746.6 679)"><ellipse cx="42.500001192092896" cy="23.125001788139343" rx="42.500001192092896" ry="23.125001788139343" fill="rgba(225,225,225,1)" stroke="#5e5ca7" stroke-width="1.5" stroke-linecap="round" stroke-linejoin="round"/></g><g transform="translate(764.1000011920929, 684.6250017881393) rotate(0, 25, 17.5)" width="50" height="35"><text text-decoration="none" x="2.5" fill="rgb(0, 0, 0)" font-weight="bold" font-size="10pt" font-family="Arial"  y="14">Region&#160;</text><text text-decoration="none" x="6" fill="rgb(0, 0, 0)" font-weight="bold" font-size="10pt" font-family="Arial"  y="36">name</text><text text-decoration="none" x="44" fill="#4b4b4b" font-size="10pt" font-family="noto_regular"  y="36"></text></g></g><g id="ujzb0vkp82"><g transform="translate(631.6 564)"><ellipse cx="42.500001192092896" cy="22.499999403953552" rx="42.500001192092896" ry="22.499999403953552" fill="rgba(225,225,225,1)" stroke="#5e5ca7" stroke-width="1.5" stroke-linecap="round" stroke-linejoin="round"/></g><g transform="translate(652.6000011920929, 576.9999994039536) rotate(0, 21.5, 9.5)" width="43" height="19"><text text-decoration="none" x="1.5" fill="rgb(0, 0, 0)" font-weight="bold" font-size="10pt" font-family="Arial"  y="17">Name</text><text text-decoration="none" x="41.5" fill="#4b4b4b" font-size="10pt" font-family="noto_regular"  y="17"></text></g></g><g id="kh8jzd1s4h"><g transform="translate(631.6 679)"><ellipse cx="42.500001192092896" cy="23.125001788139343" rx="42.500001192092896" ry="23.125001788139343" fill="rgba(225,225,225,1)" stroke="#5e5ca7" stroke-width="1.5" stroke-linecap="round" stroke-linejoin="round"/></g><g transform="translate(639.1000011920929, 692.6250017881393) rotate(0, 35, 9.5)" width="70" height="19"><text text-decoration="none" x="4" fill="rgb(0, 0, 0)" font-weight="bold" font-size="10pt" font-family="Arial"  y="17">Region_id</text><text text-decoration="none" x="66" fill="#4b4b4b" font-size="10pt" font-family="noto_regular"  y="17"></text></g></g><g id="zyvndte0a4"><g><path d="M 631.6,746.5 L 631.6,746.5" fill="none" stroke="#000000" stroke-width="1" stroke-linecap="round" stroke-linejoin="round"/></g></g><g id="on1dxjmou1"><g transform="translate(511.6 1149)"><path d="M 0,0 L 100,0 L 100,50 L 0,50 L 0,0 Z M 5,5 L 95,5 L 95,45 L 5,45 L 5,5 Z" fill="rgba(164,212,157,1)" stroke="#5e5ca7" stroke-width="1.5" stroke-linecap="round" stroke-linejoin="round"/></g><g transform="translate(525.6, 1148.5) rotate(0, 36, 25.5)" width="72" height="51"><text text-decoration="none" x="3" fill="rgb(0, 0, 0)" font-weight="bold" font-size="10pt" font-family="Arial"  y="14">Electricity&#160;</text><text text-decoration="none" x="15" fill="rgb(0, 0, 0)" font-weight="bold" font-size="10pt" font-family="Arial"  y="33">supply&#160;</text><text text-decoration="none" x="5.5" fill="rgb(0, 0, 0)" font-weight="bold" font-size="10pt" font-family="Arial"  y="55">branches</text><text text-decoration="none" x="66.5" fill="#4b4b4b" font-size="10pt" font-family="noto_regular"  y="55"></text></g></g><g id="80u30ycxc4"><g transform="translate(501.6 844)"><path d="M 126,31.5 L 63.5,62.9 L 1,31.5 L 63.5,0.3 Z" fill="rgb(212, 231, 181)" stroke="rgb(94, 92, 167)" stroke-width="1.5" vector-effect="non-scaling-stroke"/><path d="M 116,31.5 L 63.5,58 L 10,31.5 L 63.5,5 Z" fill="rgb(212, 231, 181)" stroke="rgb(94, 92, 167)" stroke-width="1.5" vector-effect="non-scaling-stroke"/></g><g transform="translate(513.3924528301887, 853.5727848101266) rotate(0, 0, 0)" width="74" height="19"><text text-decoration="none" x="0" fill="#000000" font-weight="bold" font-size="11pt" font-family="Arial"  y="17">Branche&#160;</text><text text-decoration="none" x="67" fill="#4b4b4b" font-size="10pt" font-family="noto_regular"  y="17"></text></g></g><g id="3ifgk1q477"><g transform="translate(696.6 804)"><rect x="0" y="0" width="100" height="50" fill="rgba(164,212,157,1)" stroke="#5e5ca7" stroke-width="1.5" stroke-linecap="round" stroke-linejoin="round"/></g><g transform="translate(717.6, 811.5) rotate(0, 29, 17.5)" width="58" height="35"><text text-decoration="none" x="6.5" fill="rgb(0, 0, 0)" font-weight="bold" font-size="10pt" font-family="Arial"  y="14">Region&#160;</text><text text-decoration="none" x="3" fill="rgb(0, 0, 0)" font-weight="bold" font-size="10pt" font-family="Arial"  y="36">Located</text><text text-decoration="none" x="55" fill="#4b4b4b" font-size="10pt" font-family="noto_regular"  y="36"></text></g></g><g id="1jmj0gbk4g"><g transform="translate(691.6 904)"><path d="M 126,31.5 L 63.5,62.9 L 1,31.5 L 63.5,0.3 Z" fill="rgb(212, 231, 181)" stroke="rgb(94, 92, 167)" stroke-width="1.5" vector-effect="non-scaling-stroke"/></g><g transform="translate(702.4490566037736, 913.5727848101266) rotate(0, 0, 0)" width="77" height="19"><text text-decoration="none" x="0" fill="#000000" font-weight="bold" font-size="11pt" font-family="Arial"  y="17">Location&#160;</text><text text-decoration="none" x="69" fill="#4b4b4b" font-size="10pt" font-family="noto_regular"  y="17"></text></g></g><g id="1ppdp7p32w"><g><path d="M 611.6,1184 L 741.6,1134 L 741.6,954" fill="none" stroke="#000000" stroke-width="1" stroke-linecap="round" stroke-linejoin="round"/></g></g><g id="1m9jn9rkzr"><g><path d="M 741.6,904 L 741.6,854" fill="none" stroke="#000000" stroke-width="1" stroke-linecap="round" stroke-linejoin="round"/></g></g><g id="r506hc44r0"><g transform="translate(841.6 749)"><path d="M 126,31.5 L 63.5,62.9 L 1,31.5 L 63.5,0.3 Z" fill="rgb(212, 231, 181)" stroke="rgb(94, 92, 167)" stroke-width="1.5" vector-effect="non-scaling-stroke"/></g><g transform="translate(850.3264150943396, 758.5727848101266) rotate(0, 0, 0)" width="83" height="19"><text text-decoration="none" x="0" fill="#000000" font-weight="bold" font-size="11pt" font-family="Arial"  y="17">Consume&#160;</text><text text-decoration="none" x="74" fill="#4b4b4b" font-size="10pt" font-family="noto_regular"  y="17"></text></g></g><g id="77n2x8oej9"><g><path d="M 796.6,826 L 891.6,799" fill="none" stroke="#000000" stroke-width="1" stroke-linecap="round" stroke-linejoin="round"/></g></g><g id="1u2fin4q9n"><g><path d="M 891.6,749 L 891.6,704" fill="none" stroke="#000000" stroke-width="1" stroke-linecap="round" stroke-linejoin="round"/></g></g><g id="xk8puzq8ie"><g transform="translate(766.6 569)"><ellipse cx="42.500001192092896" cy="22.499999403953552" rx="42.500001192092896" ry="22.499999403953552" fill="rgba(225,225,225,1)" stroke="#5e5ca7" stroke-width="1.5" stroke-linecap="round" stroke-linejoin="round"/></g><g transform="translate(771.1000011920929, 581.9999994039536) rotate(0, 38, 9.5)" width="76" height="19"><text text-decoration="none" x="3.5" fill="rgb(0, 0, 0)" font-weight="bold" font-size="10pt" font-family="Arial"  y="17">Con-Name</text><text text-decoration="none" x="72.5" fill="#4b4b4b" font-size="10pt" font-family="noto_regular"  y="17"></text></g></g><g id="1x9obnh57e"><g><path d="M 806.6,614 L 847.6,681" fill="none" stroke="#000000" stroke-width="1" stroke-linecap="round" stroke-linejoin="round"/></g></g><g id="9tnrvigzzl"><g><path d="M 891.6,574 L 891.6,654" fill="none" stroke="#000000" stroke-width="1" stroke-linecap="round" stroke-linejoin="round"/></g></g><g id="3n45spvmcw"><g><path d="M 971.6,619 L 946.6,674" fill="none" stroke="#000000" stroke-width="1" stroke-linecap="round" stroke-linejoin="round"/></g></g><g id="dhoqd4myvz"><g transform="translate(856.6 1199)"><ellipse cx="42.479705810546875" cy="22.62362688779831" rx="42.479705810546875" ry="22.62362688779831" fill="rgba(225,225,225,1)" stroke="#5e5ca7" stroke-width="1.5" stroke-linecap="round" stroke-linejoin="round"/></g><g transform="translate(876.0797058105469, 1212.1236268877983) rotate(0, 23, 9.5)" width="46" height="19"><text text-decoration="none" x="1" fill="rgb(0, 0, 0)" font-weight="bold" font-size="10pt" font-family="Arial"  y="17">Month</text><text text-decoration="none" x="45" fill="#4b4b4b" font-size="10pt" font-family="noto_regular"  y="17"></text></g></g><g id="2na42o2nuf"><g transform="translate(761.6 1124)"><ellipse cx="42.500001192092896" cy="22.499999403953552" rx="42.500001192092896" ry="22.499999403953552" fill="rgba(225,225,225,1)" stroke="#5e5ca7" stroke-width="1.5" stroke-linecap="round" stroke-linejoin="round"/></g><g transform="translate(771.1000011920929, 1136.9999994039536) rotate(0, 33, 9.5)" width="66" height="19"><text text-decoration="none" x="3" fill="rgb(0, 0, 0)" font-weight="bold" font-size="10pt" font-family="Arial"  y="17">Non-Paid</text><text text-decoration="none" x="63" fill="#4b4b4b" font-size="10pt" font-family="noto_regular"  y="17"></text></g></g><g id="6efxnvwft6"><g><path d="M 901.6,1104 L 901.6,1199" fill="none" stroke="#000000" stroke-width="1" stroke-linecap="round" stroke-linejoin="round"/></g></g><g id="at99wp5np3"><g><path d="M 875.1,1099.5 L 875.1,1099.5" fill="none" stroke="#000000" stroke-width="1" stroke-linecap="round" stroke-linejoin="round"/></g></g><g id="18vk88flit"><g><path d="M 879.1,1101.5 L 879.1,1101.5" fill="none" stroke="#000000" stroke-width="1" stroke-linecap="round" stroke-linejoin="round"/></g></g><g id="21zvnjjnd8"><g><path d="M 866.6,1104 L 846.6,1144" fill="none" stroke="#000000" stroke-width="1" stroke-linecap="round" stroke-linejoin="round"/></g></g><g id="c7k0bdu98d"><g><path d="M 929.1,1102.5 L 956.6,1134" fill="none" stroke="#000000" stroke-width="1" stroke-linecap="round" stroke-linejoin="round"/></g></g><g id="1maksprm5q"><g><path d="M 946.6,1084 L 991.6,929 L 941.6,774" fill="none" stroke="#000000" stroke-width="1" stroke-linecap="round" stroke-linejoin="round"/></g></g><g id="bjiwk99tw0"><g transform="translate(846.6 964)"><path d="M 126,31.5 L 63.5,62.9 L 1,31.5 L 63.5,0.3 Z" fill="rgb(212, 231, 181)" stroke="rgb(94, 92, 167)" stroke-width="1.5" vector-effect="non-scaling-stroke"/><path d="M 116,31.5 L 63.5,58 L 10,31.5 L 63.5,5 Z" fill="rgb(212, 231, 181)" stroke="rgb(94, 92, 167)" stroke-width="1.5" vector-effect="non-scaling-stroke"/></g><g transform="translate(850.7273584905661, 973.5727848101266) rotate(0, 0, 0)" width="99" height="19"><text text-decoration="none" x="0" fill="#000000" font-weight="bold" font-size="11pt" font-family="Arial"  y="17">consuption&#160;</text><text text-decoration="none" x="89" fill="#4b4b4b" font-size="10pt" font-family="noto_regular"  y="17"></text></g></g><g id="ahob1jnoq7"><g transform="translate(841.6 864)"><path d="M 0,0 L 100,0 L 100,50 L 0,50 L 0,0 Z M 5,5 L 95,5 L 95,45 L 5,45 L 5,5 Z" fill="rgba(164,212,157,1)" stroke="#5e5ca7" stroke-width="1.5" stroke-linecap="round" stroke-linejoin="round"/></g><g transform="translate(874.6, 879.5) rotate(0, 17, 9.5)" width="34" height="19"><text text-decoration="none" x="1.5" fill="rgb(0, 0, 0)" font-weight="bold" font-size="10pt" font-family="Arial"  y="17">Rate</text><text text-decoration="none" x="32.5" fill="#4b4b4b" font-size="10pt" font-family="noto_regular"  y="17"></text></g></g><g id="pzqgi480cv"><g><path d="M 896.6,1014 L 896.6,1054" fill="none" stroke="#000000" stroke-width="1" stroke-linecap="round" stroke-linejoin="round"/></g></g><g id="1zna8qphmt"><g><path d="M 895.6,962 L 896.6,914" fill="none" stroke="#000000" stroke-width="1" stroke-linecap="round" stroke-linejoin="round"/></g></g><g id="1f3mpgn28c"><g><path d="M 791.6,929 L 841.6,889" fill="none" stroke="#000000" stroke-width="1" stroke-linecap="round" stroke-linejoin="round"/></g></g><g id="c8tf42qtss"><g transform="translate(631.6 624)"><ellipse cx="42.500001192092896" cy="22.499999403953552" rx="42.500001192092896" ry="22.499999403953552" fill="rgba(225,225,225,1)" stroke="#5e5ca7" stroke-width="1.5" stroke-linecap="round" stroke-linejoin="round"/></g><g transform="translate(644.6000011920929, 636.9999994039536) rotate(0, 29.5, 9.5)" width="59" height="19"><text text-decoration="none" x="4" fill="rgb(0, 0, 0)" font-weight="bold" font-size="10pt" font-family="Arial"  y="17">Address</text><text text-decoration="none" x="55" fill="#4b4b4b" font-size="10pt" font-family="noto_regular"  y="17"></text></g></g><g id="1q508k0919"><g><path d="M 551.6,844 L 551.6,644" fill="none" stroke="#000000" stroke-width="1" stroke-linecap="round" stroke-linejoin="round"/></g></g><g id="20iaf6d8hd"><g><path d="M 551.6,894 L 551.6,1149" fill="none" stroke="#000000" stroke-width="1" stroke-linecap="round" stroke-linejoin="round"/></g></g><g id="qg6ywhkcwe"><g><path d="M 791.6,724 L 761.6,804" fill="none" stroke="#000000" stroke-width="1" stroke-linecap="round" stroke-linejoin="round"/></g></g><g id="2nsmwy8s2k"><g><path d="M 676.6,724 L 721.6,804" fill="none" stroke="#000000" stroke-width="1" stroke-linecap="round" stroke-linejoin="round"/></g></g><g id="2igzl6ile1"><g><path d="M 631.6,582.95 L 606.6,604" fill="none" stroke="#000000" stroke-width="1" stroke-linecap="round" stroke-linejoin="round"/></g></g><g id="9gmibh1wpf"><g><path d="M 632.6,640.95 L 606.6,619" fill="none" stroke="#000000" stroke-width="1" stroke-linecap="round" stroke-linejoin="round"/></g></g><g id="6je2brvy9t"><g transform="translate(641.6 1194)"><ellipse cx="42.500001192092896" cy="22.499999403953552" rx="42.500001192092896" ry="22.499999403953552" fill="rgba(225,225,225,1)" stroke="#5e5ca7" stroke-width="1.5" stroke-linecap="round" stroke-linejoin="round"/></g><g transform="translate(654.6000011920929, 1206.9999994039536) rotate(0, 29.5, 9.5)" width="59" height="19"><text text-decoration="none" x="4" fill="rgb(0, 0, 0)" font-weight="bold" font-size="10pt" font-family="Arial"  y="17">Address</text><text text-decoration="none" x="55" fill="#4b4b4b" font-size="10pt" font-family="noto_regular"  y="17"></text></g></g><g id="44vuqmbn78"><g transform="translate(641.6 1129)"><ellipse cx="42.500001192092896" cy="22.499999403953552" rx="42.500001192092896" ry="22.499999403953552" fill="rgba(225,225,225,1)" stroke="#5e5ca7" stroke-width="1.5" stroke-linecap="round" stroke-linejoin="round"/></g><g transform="translate(662.6000011920929, 1141.9999994039536) rotate(0, 21.5, 9.5)" width="43" height="19"><text text-decoration="none" x="1.5" fill="rgb(0, 0, 0)" font-weight="bold" font-size="10pt" font-family="Arial"  y="17">Name</text><text text-decoration="none" x="41.5" fill="#4b4b4b" font-size="10pt" font-family="noto_regular"  y="17"></text></g></g><g id="2iu9j466iy"><g><path d="M 641.6,1149 L 611.6,1169" fill="none" stroke="#000000" stroke-width="1" stroke-linecap="round" stroke-linejoin="round"/></g></g><g id="1y04gzwqir"><g><path d="M 640.6,1210 L 611.6,1194" fill="none" stroke="#000000" stroke-width="1" stroke-linecap="round" stroke-linejoin="round"/></g></g></svg>